# xmcd CD database file
#
# Track frame offsets:
#	150
#	111261
#	151940
#	192987
#
# Disc length: 3328 seconds
#
# Revision: 0
# Processed by: cddbd v1.5.2PL0 Copyright (c) Steve Scherf et al.
# Submitted via: CDex 1.51
#
DISCID=2c0cfe04
DTITLE=Volker Kriegel - Two Concerts - Bochum
DYEAR=2019
DGENRE=Jazz
TTITLE0=Palazzo Blue [Live]
TTITLE1=Octember Variation [Live]
TTITLE2=Philipp II. [Live]
TTITLE3=Metro Moskau [Live]
EXTD=YEAR: 2019
EXTT0=
EXTT1=
EXTT2=
EXTT3=
PLAYORDER=
